<?xml version="1.0" encoding="iso-8859-1"?>
<!-- Generator: Adobe Illustrator 19.0.0, SVG Export Plug-In . SVG Version: 6.00 Build 0)  -->
<svg version="1.1" id="Capa_1" xmlns="http://www.w3.org/2000/svg" xmlns:xlink="http://www.w3.org/1999/xlink" x="0px" y="0px"
	 viewBox="0 0 368 368" style="enable-background:new 0 0 368 368;" xml:space="preserve">
<path style="fill:#CCE4FF;" d="M104,120V72h256v48v240H56c-26.48,0-48-21.52-48-48s21.52-48,48-48s48,21.52,48,48V120z"/>
<path style="fill:#007AFF;" d="M360,64H112v-8c0-30.872-25.128-56-56-56S0,25.128,0,56v256c0,30.872,25.128,56,56,56h304
	c4.424,0,8-3.576,8-8V72C368,67.576,364.424,64,360,64z M16,56c0-22.056,17.944-40,40-40s40,17.944,40,40v216.84
	C85.832,262.456,71.656,256,56,256s-29.832,6.456-40,16.84V56z M56,352c-22.056,0-40-17.944-40-40s17.944-40,40-40s40,17.944,40,40
	c0,4.424,3.576,8,8,8s8-3.576,8-8V128h152c4.424,0,8-3.576,8-8s-3.576-8-8-8H112V80h240v32h-40c-4.424,0-8,3.576-8,8s3.576,8,8,8h40
	v224H56z"/>
<g>
</g>
<g>
</g>
<g>
</g>
<g>
</g>
<g>
</g>
<g>
</g>
<g>
</g>
<g>
</g>
<g>
</g>
<g>
</g>
<g>
</g>
<g>
</g>
<g>
</g>
<g>
</g>
<g>
</g>
</svg>
